<?xml version="1.0" standalone="no"?>
<!DOCTYPE svg PUBLIC "-//W3C//DTD SVG 20010904//EN"
 "http://www.w3.org/TR/2001/REC-SVG-20010904/DTD/svg10.dtd">
<svg version="1.0" xmlns="http://www.w3.org/2000/svg"
 width="1024.000000pt" height="1024.000000pt" viewBox="0 0 1024.000000 1024.000000"
 preserveAspectRatio="xMidYMid meet">

<g transform="translate(0.000000,1024.000000) scale(0.100000,-0.100000)"
fill="#000000" stroke="none">
<path d="M4787 8702 l-227 -227 0 -361 0 -360 57 -50 c32 -27 81 -68 110 -92
l53 -43 0 -978 0 -978 77 -7 c42 -3 96 -6 120 -6 l43 0 0 1665 c0 916 -1 1665
-3 1665 -1 0 -105 -102 -230 -228z"/>
<path d="M4310 6736 c0 -597 3 -1086 8 -1086 4 0 68 -7 142 -15 74 -8 154 -15
178 -15 l42 0 0 948 0 947 -156 130 c-86 72 -169 140 -185 153 l-29 23 0
-1085z"/>
<path d="M5775 7670 l-180 -151 -7 -117 c-8 -159 -4 -1769 5 -1778 6 -6 357
23 365 30 1 2 1 489 0 1084 l-3 1082 -180 -150z"/>
<path d="M3763 7107 l-162 -122 0 -607 -1 -607 78 -16 c42 -9 94 -20 114 -24
20 -5 40 -6 43 -3 3 3 5 285 5 627 l0 623 44 35 c42 35 43 38 50 112 4 41 3
82 -1 90 -7 12 -43 -11 -170 -108z"/>
<path d="M6312 7144 l3 -89 53 -39 52 -39 0 -623 c0 -611 0 -624 19 -624 11 0
50 7 88 15 37 9 78 18 91 20 l22 5 0 608 0 607 -156 120 c-86 66 -160 122
-166 123 -5 2 -8 -33 -6 -84z"/>
<path d="M1385 5043 c4 -10 51 -139 105 -288 138 -380 233 -639 345 -940 53
-143 126 -341 161 -439 36 -98 71 -194 79 -212 l14 -34 175 0 174 0 13 38 c6
20 102 271 211 557 110 286 224 588 255 670 30 83 58 153 61 157 4 4 41 -84
81 -195 41 -111 94 -254 117 -317 37 -98 172 -463 301 -812 l36 -98 171 0 172
0 103 278 c57 152 160 426 228 607 254 675 372 991 378 1018 l7 27 -171 0
-172 0 -14 -33 c-20 -48 -301 -826 -412 -1142 -52 -148 -100 -283 -106 -299
-7 -20 -12 -25 -17 -15 -8 15 -75 198 -230 629 -50 140 -107 296 -125 345 -18
50 -66 180 -105 290 -40 110 -75 206 -77 213 -4 9 -45 12 -158 12 l-153 0 -20
-57 c-11 -32 -90 -245 -175 -473 -85 -228 -201 -540 -257 -693 -64 -173 -106
-273 -111 -265 -4 8 -38 99 -74 203 -87 247 -421 1188 -442 1243 l-16 42 -179
0 c-168 0 -180 -1 -173 -17z"/>
<path d="M4726 5048 c5 -7 93 -137 198 -288 104 -151 253 -367 331 -480 78
-113 171 -248 208 -301 l67 -97 0 -376 0 -376 175 0 175 0 0 382 c0 312 3 384
14 397 8 9 83 115 168 236 85 121 263 374 396 562 133 188 242 344 242 347 0
3 -87 6 -193 6 l-193 0 -60 -87 c-33 -49 -165 -242 -293 -431 -128 -189 -237
-342 -242 -340 -4 2 -138 194 -297 428 l-289 425 -207 3 c-166 2 -206 0 -200
-10z"/>
<path d="M6967 5053 c-4 -3 -7 -438 -7 -965 l0 -958 170 0 170 0 2 680 3 680
126 -147 c147 -172 404 -475 501 -589 36 -43 170 -202 298 -351 l232 -273 149
0 149 0 0 965 0 965 -165 0 -165 0 -2 -679 -3 -678 -75 85 c-113 130 -287 333
-704 825 l-380 447 -146 0 c-81 0 -150 -3 -153 -7z"/>
</g>
</svg>
